#!OML:ASF X:\für Bonn\!DataBase\2005_08_10_Bjorn_Final\c3d\bjorn.ASF
:FULLY-SPECIFIED
:DEGREES
79
root 0.530183 19.0614 4.66526 -204.489 -39.3292 204.256
lowerback 40.5801 2.92566 -1.31931
upperback 22.9135 -4.02584 1.5197
thorax 6.10212 -5.19179 3.14591
lowerneck -5.29176 -10.5078 -5.75746
upperneck -11.1188 -14.4096 30.0521
head 0.62593 -8.72645 9.69395
rclavicle 6.04305e-014 3.18055e-014
rhumerus -37.6574 -11.3466 -80.2466
rradius 21.6038
rwrist 23.0959
rhand -3.09429 13.4235
rfingers 7.12502
rthumb 22.6235 -15.2706
lclavicle 6.04305e-014 3.18055e-014
lhumerus 69.5728 -24.62 83.4578
lradius 74.8576
lwrist -4.02902
lhand -40.0845 -17.9647
lfingers 7.12502
lthumb -13.0493 11.6071
rfemur -95.6463 -5.97338 26.2693
rtibia 129.009
rfoot -6.50698 21.8884
rtoes -21.887
lfemur -11.1198 -16.5258 -1.12097
ltibia 36.3964
lfoot -5.92168 -20.8972
ltoes 12.3564
80
root 0.518879 19.0576 4.66539 -204.522 -39.2775 204.093
lowerback 40.4323 2.93633 -1.42278
upperback 23.023 -4.08541 1.50311
thorax 6.27738 -5.25106 3.18019
lowerneck -5.62115 -10.4509 -5.61573
upperneck -10.9095 -14.4011 29.9817
head 0.721758 -8.68677 9.61722
rclavicle 1.59028e-014 -6.36111e-014
rhumerus -37.2903 -11.4791 -80.2768
rradius 21.4984
rwrist 23.0801
rhand -2.98258 13.6569
rfingers 7.12502
rthumb 22.7307 -15.0242
lclavicle 1.59028e-014 -6.36111e-014
lhumerus 69.4634 -24.4148 83.4823
lradius 74.8902
lwrist -4.09667
lhand -40.1832 -17.9557
lfingers 7.12502
lthumb -13.1444 11.61
rfemur -95.5698 -6.17766 26.3729
rtibia 129.254
rfoot -6.72012 21.9858
rtoes -23.0201
lfemur -10.9047 -16.4928 -1.31665
ltibia 36.413
lfoot -5.92331 -20.8838
ltoes 12.6057
81
root 0.505535 19.0554 4.66418 -204.535 -39.2012 203.928
lowerback 40.2219 2.9358 -1.53587
upperback 23.1228 -4.14894 1.47183
thorax 6.45916 -5.30789 3.20307
lowerneck -5.90091 -10.359 -5.44966
upperneck -10.7245 -14.3443 29.9161
head 0.791755 -8.63132 9.54898
rclavicle -6.99722e-014 -1.22451e-013
rhumerus -36.9503 -11.6692 -80.2962
rradius 21.3985
rwrist 23.2175
rhand -2.8587 13.8303
rfingers 7.12502
rthumb 22.8496 -14.8361
lclavicle -6.99722e-014 -1.22451e-013
lhumerus 69.3326 -24.1627 83.4468
lradius 74.8642
lwrist -4.11972
lhand -40.371 -17.9992
lfingers 7.12502
lthumb -13.3254 11.5547
rfemur -95.447 -6.36677 26.4688
rtibia 129.466
rfoot -6.87382 22.0143
rtoes -24.2772
lfemur -10.6658 -16.4562 -1.50437
ltibia 36.3849
lfoot -5.9449 -20.8297
ltoes 12.781
82
root 0.491402 19.0553 4.66229 -204.496 -39.1261 203.711
lowerback 39.989 2.92558 -1.66688
upperback 23.1915 -4.21039 1.40015
thorax 6.6096 -5.35378 3.19374
lowerneck -6.13629 -10.2504 -5.21501
upperneck -10.5746 -14.2671 29.8591
head 0.835443 -8.57759 9.47985
rclavicle 3.18055e-014 -8.42847e-014
rhumerus -36.6636 -11.9639 -80.3265
rradius 21.2653
rwrist 23.4249
rhand -2.74925 14.0398
rfingers 7.12502
rthumb 22.9546 -14.6136
lclavicle 3.18055e-014 -8.42847e-014
lhumerus 69.1398 -23.8906 83.3024
lradius 74.8332
lwrist -4.15003
lhand -40.6153 -18.0156
lfingers 7.12502
lthumb -13.5609 11.5228
rfemur -95.2867 -6.55714 26.5175
rtibia 129.651
rfoot -6.88243 21.9095
rtoes -25.19
lfemur -10.4229 -16.3717 -1.72886
ltibia 36.3135
lfoot -5.93784 -20.8058
ltoes 12.9403
83
root 0.474434 19.056 4.66056 -204.471 -39.0458 203.471
lowerback 39.7725 2.90367 -1.8299
upperback 23.2126 -4.2788 1.35791
thorax 6.70428 -5.40334 3.23937
lowerneck -6.25564 -10.143 -5.15979
upperneck -10.4379 -14.1711 29.859
head 0.873569 -8.51474 9.46897
rclavicle -2.22639e-014 8.11041e-014
rhumerus -36.4664 -12.2436 -80.2642
rradius 21.1387
rwrist 23.7778
rhand -2.68938 14.2351
rfingers 7.12502
rthumb 23.012 -14.4111
lclavicle -2.22639e-014 8.11041e-014
lhumerus 68.8133 -23.5569 83.2277
lradius 74.7868
lwrist -4.17829
lhand -40.6756 -18.3728
lfingers 7.12502
lthumb -13.619 11.1617
rfemur -95.0321 -6.78374 26.5312
rtibia 129.807
rfoot -6.78615 21.7633
rtoes -26.0978
lfemur -10.1099 -16.3107 -1.98991
ltibia 36.2018
lfoot -5.91957 -20.7298
ltoes 13.1567
84
root 0.456843 19.0589 4.65765 -204.429 -38.9144 203.245
lowerback 39.5268 2.87148 -1.9453
upperback 23.1831 -4.31628 1.29373
thorax 6.7432 -5.41845 3.23305
lowerneck -6.50599 -10.0673 -4.92462
upperneck -10.0295 -14.161 29.6261
head 0.987059 -8.44488 9.32329
rclavicle -1.55847e-013 -3.33958e-014
rhumerus -36.4346 -12.3123 -80.3687
rradius 21.1815
rwrist 23.8734
rhand -2.64514 14.2725
rfingers 7.12502
rthumb 23.0545 -14.3684
lclavicle -1.55847e-013 -3.33958e-014
lhumerus 68.3856 -23.2532 83.0854
lradius 74.7752
lwrist -4.11938
lhand -40.8497 -18.4204
lfingers 7.12502
lthumb -13.7868 11.1028
rfemur -94.716 -6.91642 26.5576
rtibia 129.895
rfoot -6.53868 21.545
rtoes -26.7287
lfemur -9.78613 -16.2102 -2.21368
ltibia 36.0603
lfoot -5.9232 -20.6564
ltoes 13.2947
85
root 0.437629 19.0636 4.6537 -204.331 -38.8015 202.956
lowerback 39.264 2.81268 -2.11921
upperback 23.0842 -4.3693 1.21137
thorax 6.70905 -5.43152 3.2485
lowerneck -6.825 -9.9974 -4.65269
upperneck -9.33959 -14.1934 29.2222
head 1.17959 -8.34681 9.09738
rclavicle 7.63333e-014 -3.02153e-014
rhumerus -36.4463 -12.4952 -80.3616
rradius 21.0779
rwrist 24.2825
rhand -2.69664 14.3729
rfingers 7.12502
rthumb 23.0051 -14.2742
lclavicle 7.63333e-014 -3.02153e-014
lhumerus 67.7787 -22.8757 82.9829
lradius 74.7032
lwrist -4.07813
lhand -40.9454 -18.5708
lfingers 7.12502
lthumb -13.879 10.9461
rfemur -94.3302 -7.10598 26.5082
rtibia 129.923
rfoot -6.18601 21.3807
rtoes -27.1631
lfemur -9.45564 -16.1188 -2.49817
ltibia 35.8851
lfoot -5.91631 -20.5533
ltoes 13.4121
86
root 0.415689 19.0693 4.64949 -204.225 -38.6637 202.687
lowerback 38.9508 2.7245 -2.3123
upperback 22.9576 -4.4472 1.14702
thorax 6.66299 -5.45504 3.30025
lowerneck -7.00665 -9.87931 -4.39307
upperneck -8.72961 -14.1317 28.7613
head 1.30521 -8.2177 8.88012
rclavicle -9.85972e-014 -2.70347e-014
rhumerus -36.4173 -12.6085 -80.2895
rradius 20.873
rwrist 24.7274
rhand -2.81658 14.5216
rfingers 7.12502
rthumb 22.89 -14.1398
lclavicle -9.85972e-014 -2.70347e-014
lhumerus 67.0254 -22.3748 82.91
lradius 74.6787
lwrist -4.06674
lhand -41.0029 -18.556
lfingers 7.12502
lthumb -13.9344 10.9571
rfemur -93.8524 -7.29121 26.4564
rtibia 129.859
rfoot -5.67896 21.2478
rtoes -27.4008
lfemur -9.13277 -16.0094 -2.75403
ltibia 35.6956
lfoot -5.86633 -20.4493
ltoes 13.7012
87
root 0.393009 19.0749 4.64498 -204.095 -38.5064 202.386
lowerback 38.642 2.62193 -2.52738
upperback 22.7582 -4.51817 1.07777
thorax 6.53263 -5.46323 3.36417
lowerneck -6.94383 -9.73276 -4.20331
upperneck -8.19834 -13.993 28.3114
head 1.36119 -8.07086 8.70587
rclavicle 3.18055e-015 -8.11041e-014
rhumerus -36.5027 -12.6174 -80.1972
rradius 20.6795
rwrist 25.1032
rhand -2.89195 14.6189
rfingers 7.12502
rthumb 22.8177 -14.0515
lclavicle 3.18055e-015 -8.11041e-014
lhumerus 66.0774 -21.834 82.8626
lradius 74.6399
lwrist -4.08464
lhand -41.0197 -18.4576
lfingers 7.12502
lthumb -13.9506 11.0543
rfemur -93.2492 -7.46144 26.3817
rtibia 129.694
rfoot -5.11943 21.0874
rtoes -27.8417
lfemur -8.77612 -15.8867 -3.03643
ltibia 35.4619
lfoot -5.87784 -20.3289
ltoes 13.6526
88
root 0.369062 19.0794 4.63877 -203.938 -38.3612 202.022
lowerback 38.3349 2.52816 -2.87576
upperback 22.5235 -4.6086 1.05697
thorax 6.37479 -5.49586 3.55659
lowerneck -6.70837 -9.56391 -4.0772
upperneck -7.76675 -13.7782 27.7836
head 1.34521 -7.9012 8.53925
rclavicle -7.63333e-014 -1.35174e-013
rhumerus -36.6091 -12.5307 -79.9974
rradius 20.49
rwrist 25.5221
rhand -2.98155 14.6895
rfingers 7.12502
rthumb 22.7317 -13.9914
lclavicle -7.63333e-014 -1.35174e-013
lhumerus 64.978 -21.1445 82.9272
lradius 74.575
lwrist -4.22399
lhand -41.0632 -18.1933
lfingers 7.12502
lthumb -13.9925 11.3158
rfemur -92.4362 -7.67656 26.2377
rtibia 129.41
rfoot -4.44846 20.9418
rtoes -28.3119
lfemur -8.36662 -15.6909 -3.36786
ltibia 35.1581
lfoot -5.82696 -20.2385
ltoes 13.7011
89
root 0.342933 19.0916 4.63177 -203.717 -38.2152 201.585
lowerback 37.9863 2.42712 -3.26054
upperback 22.2751 -4.70676 1.00198
thorax 6.21722 -5.52736 3.73286
lowerneck -6.44297 -9.37714 -3.9574
upperneck -7.31901 -13.539 27.2588
head 1.32801 -7.72107 8.37814
rclavicle 1.39944e-013 9.22361e-014
rhumerus -36.7136 -12.3882 -79.8606
rradius 20.2889
rwrist 25.8741
rhand -3.02647 14.7491
rfingers 7.12502
rthumb 22.6886 -13.9371
lclavicle 1.39944e-013 9.22361e-014
lhumerus 63.7906 -20.4228 82.9605
lradius 74.4541
lwrist -4.47384
lhand -41.0662 -17.879
lfingers 7.12502
lthumb -13.9955 11.6299
rfemur -91.456 -7.85809 26.0176
rtibia 129
rfoot -3.77577 20.7749
rtoes -28.9216
lfemur -7.91909 -15.4228 -3.74988
ltibia 34.7617
lfoot -5.68193 -20.2081
ltoes 13.8972
90
root 0.316576 19.1123 4.62522 -203.471 -38.0555 201.111
lowerback 37.5202 2.33953 -3.62451
upperback 22.1174 -4.8033 0.9336
thorax 6.2027 -5.56797 3.86826
lowerneck -6.29215 -9.18489 -3.70699
upperneck -6.91679 -13.2968 26.657
head 1.30279 -7.54292 8.16617
rclavicle 9.54166e-014 7.31528e-014
rhumerus -36.6974 -12.4939 -79.7005
rradius 20.1087
rwrist 26.3695
rhand -2.97787 14.7348
rfingers 7.12502
rthumb 22.7352 -13.9457
lclavicle 9.54166e-014 7.31528e-014
lhumerus 62.6884 -19.668 82.8915
lradius 74.2848
lwrist -4.76164
lhand -41.0277 -17.5961
lfingers 7.12502
lthumb -13.9583 11.9153
rfemur -90.3652 -8.00295 25.7426
rtibia 128.507
rfoot -2.91145 20.5415
rtoes -28.756
lfemur -7.42025 -15.067 -4.1456
ltibia 34.2646
lfoot -5.4821 -20.208
ltoes 14.112
